<svg width="193" height="56" viewBox="0 0 193 56" fill="none" xmlns="http://www.w3.org/2000/svg">
<g filter="url(#filter0_dd)">
<path d="M26.9486 46.8972C15.9313 46.8972 7 37.9659 7 26.9486V26.9486C7 15.9313 15.9313 6.99998 26.9486 6.99998V6.99998C37.9659 6.99998 46.8972 15.9313 46.8972 26.9486L46.8972 46.6046C46.8972 46.7662 46.7662 46.8972 46.6046 46.8972L26.9486 46.8972Z" fill="url(#paint0_angular)"/>
</g>
<rect x="26.7808" y="27.1299" width="0.493912" height="28.0989" rx="0.246956" transform="rotate(-45 26.7808 27.1299)" fill="url(#paint1_linear)"/>
<g opacity="0.5" filter="url(#filter1_f)">
<rect x="26.7808" y="27.1299" width="0.493912" height="28.1008" rx="0.246956" transform="rotate(-45 26.7808 27.1299)" fill="url(#paint2_linear)"/>
</g>
<path d="M64.304 38.176C63.0427 38.176 61.906 37.9193 60.894 37.406C59.8967 36.878 59.112 36.152 58.54 35.228C57.9827 34.304 57.704 33.2553 57.704 32.082C57.704 30.9087 57.9827 29.86 58.54 28.936C59.112 28.012 59.8967 27.2933 60.894 26.78C61.906 26.252 63.0427 25.988 64.304 25.988C65.5507 25.988 66.636 26.252 67.56 26.78C68.4987 27.2933 69.1807 28.034 69.606 29.002L66.944 30.432C66.328 29.3467 65.4407 28.804 64.282 28.804C63.3873 28.804 62.6467 29.0973 62.06 29.684C61.4733 30.2707 61.18 31.07 61.18 32.082C61.18 33.094 61.4733 33.8933 62.06 34.48C62.6467 35.0667 63.3873 35.36 64.282 35.36C65.4553 35.36 66.3427 34.8173 66.944 33.732L69.606 35.184C69.1807 36.1227 68.4987 36.856 67.56 37.384C66.636 37.912 65.5507 38.176 64.304 38.176ZM77.0637 38.176C75.817 38.176 74.695 37.9193 73.6977 37.406C72.715 36.878 71.945 36.152 71.3877 35.228C70.8303 34.304 70.5517 33.2553 70.5517 32.082C70.5517 30.9087 70.8303 29.86 71.3877 28.936C71.945 28.012 72.715 27.2933 73.6977 26.78C74.695 26.252 75.817 25.988 77.0637 25.988C78.3103 25.988 79.425 26.252 80.4077 26.78C81.3903 27.2933 82.1603 28.012 82.7177 28.936C83.275 29.86 83.5537 30.9087 83.5537 32.082C83.5537 33.2553 83.275 34.304 82.7177 35.228C82.1603 36.152 81.3903 36.878 80.4077 37.406C79.425 37.9193 78.3103 38.176 77.0637 38.176ZM77.0637 35.36C77.9437 35.36 78.6623 35.0667 79.2197 34.48C79.7917 33.8787 80.0777 33.0793 80.0777 32.082C80.0777 31.0847 79.7917 30.2927 79.2197 29.706C78.6623 29.1047 77.9437 28.804 77.0637 28.804C76.1837 28.804 75.4577 29.1047 74.8857 29.706C74.3137 30.2927 74.0277 31.0847 74.0277 32.082C74.0277 33.0793 74.3137 33.8787 74.8857 34.48C75.4577 35.0667 76.1837 35.36 77.0637 35.36ZM85.8477 21.676H89.2797V38H85.8477V21.676ZM98.0969 38.176C96.8502 38.176 95.7282 37.9193 94.7309 37.406C93.7482 36.878 92.9782 36.152 92.4209 35.228C91.8635 34.304 91.5849 33.2553 91.5849 32.082C91.5849 30.9087 91.8635 29.86 92.4209 28.936C92.9782 28.012 93.7482 27.2933 94.7309 26.78C95.7282 26.252 96.8502 25.988 98.0969 25.988C99.3435 25.988 100.458 26.252 101.441 26.78C102.424 27.2933 103.194 28.012 103.751 28.936C104.308 29.86 104.587 30.9087 104.587 32.082C104.587 33.2553 104.308 34.304 103.751 35.228C103.194 36.152 102.424 36.878 101.441 37.406C100.458 37.9193 99.3435 38.176 98.0969 38.176ZM98.0969 35.36C98.9769 35.36 99.6955 35.0667 100.253 34.48C100.825 33.8787 101.111 33.0793 101.111 32.082C101.111 31.0847 100.825 30.2927 100.253 29.706C99.6955 29.1047 98.9769 28.804 98.0969 28.804C97.2169 28.804 96.4909 29.1047 95.9189 29.706C95.3469 30.2927 95.0609 31.0847 95.0609 32.082C95.0609 33.0793 95.3469 33.8787 95.9189 34.48C96.4909 35.0667 97.2169 35.36 98.0969 35.36ZM110.159 27.726C110.57 27.154 111.12 26.7213 111.809 26.428C112.513 26.1347 113.32 25.988 114.229 25.988V29.156C113.848 29.1267 113.591 29.112 113.459 29.112C112.476 29.112 111.706 29.3907 111.149 29.948C110.592 30.4907 110.313 31.312 110.313 32.412V38H106.881V26.164H110.159V27.726ZM127.668 33.358L126.018 34.986V38H122.586V21.676H126.018V30.916L131.034 26.164H135.126L130.198 31.18L135.566 38H131.408L127.668 33.358ZM144.217 25.988C145.684 25.988 146.865 26.428 147.759 27.308C148.669 28.188 149.123 29.4933 149.123 31.224V38H145.691V31.752C145.691 30.8133 145.486 30.1167 145.075 29.662C144.665 29.1927 144.071 28.958 143.293 28.958C142.428 28.958 141.739 29.2293 141.225 29.772C140.712 30.3 140.455 31.092 140.455 32.148V38H137.023V26.164H140.301V27.55C140.756 27.0513 141.321 26.67 141.995 26.406C142.67 26.1273 143.411 25.988 144.217 25.988ZM157.995 38.176C156.749 38.176 155.627 37.9193 154.629 37.406C153.647 36.878 152.877 36.152 152.319 35.228C151.762 34.304 151.483 33.2553 151.483 32.082C151.483 30.9087 151.762 29.86 152.319 28.936C152.877 28.012 153.647 27.2933 154.629 26.78C155.627 26.252 156.749 25.988 157.995 25.988C159.242 25.988 160.357 26.252 161.339 26.78C162.322 27.2933 163.092 28.012 163.649 28.936C164.207 29.86 164.485 30.9087 164.485 32.082C164.485 33.2553 164.207 34.304 163.649 35.228C163.092 36.152 162.322 36.878 161.339 37.406C160.357 37.9193 159.242 38.176 157.995 38.176ZM157.995 35.36C158.875 35.36 159.594 35.0667 160.151 34.48C160.723 33.8787 161.009 33.0793 161.009 32.082C161.009 31.0847 160.723 30.2927 160.151 29.706C159.594 29.1047 158.875 28.804 157.995 28.804C157.115 28.804 156.389 29.1047 155.817 29.706C155.245 30.2927 154.959 31.0847 154.959 32.082C154.959 33.0793 155.245 33.8787 155.817 34.48C156.389 35.0667 157.115 35.36 157.995 35.36ZM173.775 25.988C174.875 25.988 175.873 26.2447 176.767 26.758C177.677 27.2567 178.388 27.968 178.901 28.892C179.415 29.8013 179.671 30.8647 179.671 32.082C179.671 33.2993 179.415 34.37 178.901 35.294C178.388 36.2033 177.677 36.9147 176.767 37.428C175.873 37.9267 174.875 38.176 173.775 38.176C172.147 38.176 170.908 37.6627 170.057 36.636V38H166.779V21.676H170.211V27.418C171.077 26.4647 172.265 25.988 173.775 25.988ZM173.181 35.36C174.061 35.36 174.78 35.0667 175.337 34.48C175.909 33.8787 176.195 33.0793 176.195 32.082C176.195 31.0847 175.909 30.2927 175.337 29.706C174.78 29.1047 174.061 28.804 173.181 28.804C172.301 28.804 171.575 29.1047 171.003 29.706C170.446 30.2927 170.167 31.0847 170.167 32.082C170.167 33.0793 170.446 33.8787 171.003 34.48C171.575 35.0667 172.301 35.36 173.181 35.36ZM185.951 38.176C184.968 38.176 184.007 38.0587 183.069 37.824C182.13 37.5747 181.382 37.2667 180.825 36.9L181.969 34.436C182.497 34.7733 183.135 35.052 183.883 35.272C184.631 35.4773 185.364 35.58 186.083 35.58C187.535 35.58 188.261 35.2207 188.261 34.502C188.261 34.1647 188.063 33.9227 187.667 33.776C187.271 33.6293 186.662 33.5047 185.841 33.402C184.873 33.2553 184.073 33.0867 183.443 32.896C182.812 32.7053 182.262 32.368 181.793 31.884C181.338 31.4 181.111 30.7107 181.111 29.816C181.111 29.068 181.323 28.408 181.749 27.836C182.189 27.2493 182.819 26.7947 183.641 26.472C184.477 26.1493 185.459 25.988 186.589 25.988C187.425 25.988 188.253 26.0833 189.075 26.274C189.911 26.45 190.6 26.6993 191.143 27.022L189.999 29.464C188.957 28.8773 187.821 28.584 186.589 28.584C185.855 28.584 185.305 28.6867 184.939 28.892C184.572 29.0973 184.389 29.3613 184.389 29.684C184.389 30.0507 184.587 30.3073 184.983 30.454C185.379 30.6007 186.009 30.74 186.875 30.872C187.843 31.0333 188.635 31.2093 189.251 31.4C189.867 31.576 190.402 31.906 190.857 32.39C191.311 32.874 191.539 33.5487 191.539 34.414C191.539 35.1473 191.319 35.8 190.879 36.372C190.439 36.944 189.793 37.3913 188.943 37.714C188.107 38.022 187.109 38.176 185.951 38.176Z" fill="#424C67"/>
<defs>
<filter id="filter0_dd" x="0" y="0" width="53.8972" height="53.8972" filterUnits="userSpaceOnUse" color-interpolation-filters="sRGB">
<feFlood flood-opacity="0" result="BackgroundImageFix"/>
<feColorMatrix in="SourceAlpha" type="matrix" values="0 0 0 0 0 0 0 0 0 0 0 0 0 0 0 0 0 0 127 0"/>
<feOffset dx="1" dy="1"/>
<feGaussianBlur stdDeviation="3"/>
<feColorMatrix type="matrix" values="0 0 0 0 0.101961 0 0 0 0 0.137255 0 0 0 0 0.258824 0 0 0 0.3 0"/>
<feBlend mode="normal" in2="BackgroundImageFix" result="effect1_dropShadow"/>
<feColorMatrix in="SourceAlpha" type="matrix" values="0 0 0 0 0 0 0 0 0 0 0 0 0 0 0 0 0 0 127 0"/>
<feOffset dx="-1" dy="-1"/>
<feGaussianBlur stdDeviation="3"/>
<feColorMatrix type="matrix" values="0 0 0 0 1 0 0 0 0 1 0 0 0 0 1 0 0 0 0.6 0"/>
<feBlend mode="normal" in2="effect1_dropShadow" result="effect2_dropShadow"/>
<feBlend mode="normal" in="SourceGraphic" in2="effect2_dropShadow" result="shape"/>
</filter>
<filter id="filter1_f" x="17.7808" y="17.7806" width="38.2195" height="38.2195" filterUnits="userSpaceOnUse" color-interpolation-filters="sRGB">
<feFlood flood-opacity="0" result="BackgroundImageFix"/>
<feBlend mode="normal" in="SourceGraphic" in2="BackgroundImageFix" result="shape"/>
<feGaussianBlur stdDeviation="4.5" result="effect1_foregroundBlur"/>
</filter>
<radialGradient id="paint0_angular" cx="0" cy="0" r="1" gradientUnits="userSpaceOnUse" gradientTransform="translate(26.9486 26.9486) rotate(45) scale(28.2116)">
<stop stop-color="#182140"/>
<stop offset="1" stop-color="#778298"/>
</radialGradient>
<linearGradient id="paint1_linear" x1="27.0277" y1="27.1299" x2="27.0277" y2="55.2288" gradientUnits="userSpaceOnUse">
<stop stop-color="#FF0000"/>
<stop offset="0.173605" stop-color="#FF9900"/>
<stop offset="0.334851" stop-color="#FAFF00"/>
<stop offset="0.4792" stop-color="#80FF00"/>
<stop offset="0.609115" stop-color="#00FFC2"/>
<stop offset="0.803986" stop-color="#0066FF"/>
<stop offset="1" stop-color="#8F00FF"/>
</linearGradient>
<linearGradient id="paint2_linear" x1="27.0277" y1="27.1299" x2="27.0277" y2="55.2307" gradientUnits="userSpaceOnUse">
<stop stop-color="#FF0000"/>
<stop offset="0.173605" stop-color="#FF9900"/>
<stop offset="0.334851" stop-color="#FAFF00"/>
<stop offset="0.4792" stop-color="#80FF00"/>
<stop offset="0.609115" stop-color="#00FFC2"/>
<stop offset="0.803986" stop-color="#0066FF"/>
<stop offset="1" stop-color="#8F00FF"/>
</linearGradient>
</defs>
</svg>
